<svg width="29" height="29" viewBox="0 0 29 29" fill="none" xmlns="http://www.w3.org/2000/svg">
<path d="M3.625 6.34379C3.38465 6.34379 3.15414 6.43927 2.98418 6.60922C2.81423 6.77918 2.71875 7.00969 2.71875 7.25004C2.71875 7.49039 2.81423 7.7209 2.98418 7.89085C3.15414 8.06081 3.38465 8.15629 3.625 8.15629H5.63687L8.01487 17.6719C8.21697 18.4785 8.93925 19.0313 9.77028 19.0313H21.0712C21.8896 19.0313 22.5847 18.4875 22.7994 17.6991L25.1484 9.06254H23.2507L21.0703 17.2188H9.76937L7.39228 7.70316C7.29409 7.31278 7.06773 6.96663 6.74946 6.72017C6.43119 6.4737 6.03941 6.34116 5.63687 6.34379H3.625ZM19.9375 19.0313C18.4467 19.0313 17.2188 20.2593 17.2188 21.75C17.2188 23.2408 18.4467 24.4688 19.9375 24.4688C21.4283 24.4688 22.6562 23.2408 22.6562 21.75C22.6562 20.2593 21.4283 19.0313 19.9375 19.0313ZM11.7812 19.0313C10.2905 19.0313 9.0625 20.2593 9.0625 21.75C9.0625 23.2408 10.2905 24.4688 11.7812 24.4688C13.272 24.4688 14.5 23.2408 14.5 21.75C14.5 20.2593 13.272 19.0313 11.7812 19.0313ZM14.5 6.34379V10.875H11.7812L15.4062 14.5L19.0312 10.875H16.3125V6.34379H14.5ZM11.7812 20.8438C12.2924 20.8438 12.6875 21.2389 12.6875 21.75C12.6875 22.2612 12.2924 22.6563 11.7812 22.6563C11.2701 22.6563 10.875 22.2612 10.875 21.75C10.875 21.2389 11.2701 20.8438 11.7812 20.8438ZM19.9375 20.8438C20.4486 20.8438 20.8438 21.2389 20.8438 21.75C20.8438 22.2612 20.4486 22.6563 19.9375 22.6563C19.4264 22.6563 19.0312 22.2612 19.0312 21.75C19.0312 21.2389 19.4264 20.8438 19.9375 20.8438Z" fill="#00A3A8"/>
</svg>
